<svg width="42" height="42" viewBox="0 0 42 42" fill="none" xmlns="http://www.w3.org/2000/svg">
<path d="M21.0001 0.166504C9.49292 0.166504 0.166748 9.49268 0.166748 20.9998C0.166748 32.507 9.49292 41.8332 21.0001 41.8332C32.5072 41.8332 41.8334 32.507 41.8334 20.9998C41.8334 9.49268 32.5072 0.166504 21.0001 0.166504ZM21.0001 4.33317C30.1879 4.33317 37.6668 11.812 37.6668 20.9998C37.6668 21.9764 37.5691 22.9367 37.4063 23.8644C36.8936 23.7505 36.1368 23.6121 35.2579 23.604C34.6069 23.5959 33.7931 23.7017 33.1095 23.7993C33.3455 23.075 33.5001 22.2775 33.5001 21.4556C33.5001 19.4536 32.5235 17.59 30.961 16.0519C31.3923 14.4487 31.8155 11.6981 30.7006 10.5832C27.4047 10.5832 25.5818 12.9351 25.4923 13.0571C24.475 12.813 23.4252 12.6665 22.3022 12.6665C20.8617 12.6665 19.4864 12.9269 18.2006 13.3175L18.5912 12.992C18.5912 12.992 16.7602 10.453 13.3829 10.453C12.2029 11.6411 12.74 14.6522 13.1876 16.1821C11.5925 17.7039 10.5834 19.5024 10.5834 21.4556C10.5834 22.1392 10.7462 22.7902 10.9089 23.4087C10.3311 23.3436 8.2478 23.1483 7.39331 23.1483C6.63648 23.1483 5.4646 23.3273 4.52873 23.5389C4.39852 22.7088 4.33342 21.8625 4.33342 20.9998C4.33342 11.812 11.8123 4.33317 21.0001 4.33317ZM7.39331 23.6691C8.21525 23.6691 10.7136 23.9621 11.0391 23.9946C11.0798 24.1086 11.1205 24.2144 11.1694 24.3202C10.2742 24.2388 8.54077 24.1167 7.39331 24.255C6.62834 24.3446 5.65178 24.6213 4.78914 24.841C4.72404 24.5806 4.64266 24.3283 4.59383 24.0597C5.50529 23.8644 6.70158 23.6691 7.39331 23.6691ZM35.2579 24.1248C36.088 24.133 36.8448 24.2713 37.3412 24.3853C37.3168 24.5236 37.2436 24.6375 37.211 24.7759C36.6821 24.6538 35.8113 24.4748 34.8022 24.4504C34.3139 24.4422 33.5326 24.4666 32.849 24.5155C32.8816 24.4504 32.8897 24.3853 32.9141 24.3202C33.6222 24.2225 34.5255 24.1167 35.2579 24.1248ZM8.69539 24.7108C9.86727 24.7189 10.9659 24.8003 11.4298 24.841C12.5203 26.8755 14.7257 28.381 18.1355 29.0077C17.2973 29.4715 16.5486 30.1226 15.9871 30.8957C15.4988 30.9364 14.9861 30.9608 14.4897 30.9608C13.0411 30.9608 12.1378 29.6668 11.3647 28.5519C10.5834 27.437 9.62313 27.3149 9.08602 27.2498C8.54077 27.1847 8.3536 27.494 8.63029 27.7056C10.2172 28.9263 10.7869 30.3748 11.4298 31.6769C12.0076 32.8488 13.2201 33.4998 14.5548 33.4998H14.8152C14.7745 33.7277 14.7501 33.9393 14.7501 34.1509V36.4295C9.94051 34.4845 6.2784 30.3748 4.91935 25.2967C5.77384 25.0851 6.73413 24.8654 7.45842 24.7759C7.79207 24.7352 8.21525 24.7026 8.69539 24.7108ZM34.8022 24.9712C35.738 24.9956 36.5681 25.1746 37.0808 25.2967C35.9334 29.6099 33.1013 33.1987 29.3334 35.3879V34.1509C29.3334 32.3768 27.9337 30.0981 25.948 29.0077C29.2439 28.4054 31.3923 26.965 32.5235 25.0363C33.3129 24.9793 34.2406 24.9549 34.8022 24.9712ZM22.0417 33.4998C22.6114 33.4998 23.0834 33.9718 23.0834 34.5415V37.5363C22.3998 37.6258 21.7081 37.6665 21.0001 37.6665V34.5415C21.0001 33.9718 21.4721 33.4998 22.0417 33.4998ZM17.8751 35.5832C18.4447 35.5832 18.9167 36.0552 18.9167 36.6248V37.5363C18.2169 37.4468 17.5089 37.3166 16.8334 37.1457V36.6248C16.8334 36.0552 17.3054 35.5832 17.8751 35.5832ZM26.2084 35.5832C26.713 35.5832 27.1524 35.9494 27.2501 36.4295C26.5746 36.7062 25.8829 36.9585 25.1667 37.1457V36.6248C25.1667 36.0552 25.6388 35.5832 26.2084 35.5832Z" fill="#3F7D20"/>
<path fill-rule="evenodd" clip-rule="evenodd" d="M37.6667 20.9997C37.6667 11.8119 30.1879 4.33301 21 4.33301C11.8122 4.33301 4.33337 11.8119 4.33337 20.9997C4.33337 21.8623 4.39848 22.7087 4.52869 23.5387C5.46456 23.3272 6.63643 23.1481 7.39327 23.1481C8.24776 23.1481 10.3311 23.3434 10.9089 23.4085C10.7461 22.79 10.5834 22.139 10.5834 21.4554C10.5834 19.5023 11.5925 17.7038 13.1875 16.182C12.7399 14.652 12.2028 11.641 13.3829 10.4528C16.7601 10.4528 18.5912 12.9919 18.5912 12.9919L18.2006 13.3174C19.4864 12.9268 20.8617 12.6663 22.3021 12.6663C23.4252 12.6663 24.475 12.8128 25.4922 13.057C25.5817 12.9349 27.4047 10.583 30.7006 10.583C31.8155 11.6979 31.3923 14.4486 30.961 16.0518C32.5235 17.5898 33.5 19.4535 33.5 21.4554C33.5 22.2773 33.3454 23.0749 33.1094 23.7992C33.793 23.7015 34.6068 23.5957 35.2579 23.6038C36.1368 23.612 36.8936 23.7503 37.4063 23.8643C37.5691 22.9365 37.6667 21.9762 37.6667 20.9997ZM10.7284 23.9607C9.95159 23.8751 8.0827 23.6689 7.39327 23.6689C6.70154 23.6689 5.50525 23.8643 4.59379 24.0596C4.62634 24.2386 4.67336 24.4104 4.72038 24.5822C4.74389 24.6681 4.7674 24.754 4.7891 24.8408C4.93694 24.8032 5.08811 24.7638 5.241 24.7241C5.98023 24.5318 6.75939 24.3291 7.39327 24.2549C8.54073 24.1165 10.2741 24.2386 11.1693 24.32C11.1205 24.2142 11.0798 24.1084 11.0391 23.9945C10.9866 23.9892 10.8777 23.9772 10.7284 23.9607ZM37.3412 24.3851C36.8448 24.2712 36.0879 24.1328 35.2579 24.1247C34.5254 24.1165 33.6221 24.2223 32.9141 24.32C32.9043 24.346 32.8972 24.3721 32.89 24.3981C32.8793 24.4372 32.8685 24.4762 32.849 24.5153C33.5326 24.4665 34.3138 24.4421 34.8021 24.4502C35.8112 24.4746 36.682 24.6536 37.211 24.7757C37.226 24.7117 37.2498 24.6529 37.2734 24.5945C37.3009 24.5267 37.3281 24.4594 37.3412 24.3851ZM11.4297 24.8408C10.9659 24.8001 9.86723 24.7188 8.69535 24.7106C8.21521 24.7025 7.79203 24.735 7.45837 24.7757C6.73409 24.8652 5.7738 25.085 4.91931 25.2966C6.27836 30.3747 9.94047 34.4844 14.75 36.4294V34.1507C14.75 33.9391 14.7745 33.7275 14.8151 33.4997H14.5547C13.2201 33.4997 12.0075 32.8486 11.4297 31.6768C11.357 31.5295 11.2852 31.3803 11.2128 31.2298C10.6449 30.0499 10.0376 28.788 8.63025 27.7054C8.35356 27.4938 8.54073 27.1846 9.08598 27.2497C9.62309 27.3148 10.5834 27.4369 11.3646 28.5518C12.1377 29.6667 13.0411 30.9606 14.4896 30.9606C14.986 30.9606 15.4987 30.9362 15.987 30.8955C16.5485 30.1224 17.2972 29.4714 18.1355 29.0075C14.7256 28.3809 12.5202 26.8753 11.4297 24.8408ZM37.0808 25.2966C36.5681 25.1745 35.738 24.9954 34.8021 24.971C34.2406 24.9548 33.3129 24.9792 32.5235 25.0361C31.3923 26.9648 29.2439 28.4053 25.948 29.0075C27.9336 30.098 29.3334 32.3766 29.3334 34.1507V35.3877C33.1013 33.1986 35.9333 29.6097 37.0808 25.2966ZM23.0834 34.5413C23.0834 33.9717 22.6114 33.4997 22.0417 33.4997C21.472 33.4997 21 33.9717 21 34.5413V37.6663C21.7081 37.6663 22.3998 37.6257 23.0834 37.5361V34.5413ZM18.9167 36.6247C18.9167 36.055 18.4447 35.583 17.875 35.583C17.3054 35.583 16.8334 36.055 16.8334 36.6247V37.1455C17.5088 37.3164 18.2168 37.4466 18.9167 37.5361V36.6247ZM27.25 36.4294C27.1524 35.9492 26.7129 35.583 26.2084 35.583C25.6387 35.583 25.1667 36.055 25.1667 36.6247V37.1455C25.8829 36.9583 26.5746 36.7061 27.25 36.4294Z" fill="white"/>
</svg>
