<svg width="15" height="15" viewBox="0 0 15 15" fill="none" xmlns="http://www.w3.org/2000/svg">
<path fill-rule="evenodd" clip-rule="evenodd" d="M11.1836 13.8396C11.971 14.6142 13.2373 14.6039 14.0119 13.8164C14.7866 13.029 14.7762 11.7627 13.9887 10.9881L10.1227 7.18498L13.8398 3.40654C14.6144 2.61913 14.6041 1.35284 13.8167 0.578212C13.0292 -0.196418 11.763 -0.186054 10.9883 0.601361L7.27118 4.37985L3.40261 0.574233C2.61519 -0.200382 1.3489 -0.189994 0.574284 0.597435C-0.200332 1.38486 -0.189945 2.65115 0.597484 3.42577L4.466 7.23133L0.57426 11.1873C-0.20037 11.9747 -0.190006 13.241 0.597409 14.0156C1.38482 14.7903 2.65111 14.7799 3.42574 13.9925L7.31753 10.0365L11.1836 13.8396Z" fill="black"/>
</svg>
